<svg width="49" height="48" viewBox="0 0 49 48" fill="none" xmlns="http://www.w3.org/2000/svg">
<path d="M43.6939 5.95056C43.2805 5.59366 42.7774 5.35664 42.239 5.26517C41.7006 5.1737 41.1475 5.23127 40.6395 5.43164L6.03501 19.0263C5.43184 19.2633 4.92162 19.6892 4.58069 20.2403C4.23976 20.7914 4.08645 21.4381 4.14371 22.0836C4.20096 22.7291 4.4657 23.3387 4.8983 23.8212C5.33091 24.3037 5.90813 24.6332 6.54358 24.7603L15.3334 26.5183V37.4971C15.3329 38.0906 15.5085 38.671 15.8381 39.1647C16.1676 39.6584 16.6363 40.0431 17.1847 40.2703C17.733 40.4974 18.3365 40.5567 18.9186 40.4407C19.5007 40.3246 20.0353 40.0384 20.4547 39.6184L25.319 34.7541L32.702 41.2511C33.2456 41.7338 33.9471 42.0008 34.674 42.0017C34.99 42.0013 35.304 41.9515 35.6046 41.8541C36.1004 41.6968 36.5463 41.4123 36.8979 41.0289C37.2494 40.6455 37.4942 40.1766 37.608 39.6691L44.6606 8.89417C44.7834 8.36201 44.7582 7.8064 44.5878 7.28752C44.4174 6.76865 44.1082 6.3063 43.6939 5.95056V5.95056ZM34.6838 38.9989L19.2353 25.4041L41.4811 9.33774L34.6838 38.9989Z" fill="#0052FE"/>
</svg>
