<svg width="21" height="20" viewBox="0 0 21 20" fill="none" xmlns="http://www.w3.org/2000/svg">
<path d="M10.5 12.5C11.8807 12.5 13 11.3807 13 10C13 8.61929 11.8807 7.5 10.5 7.5C9.11929 7.5 8 8.61929 8 10C8 11.3807 9.11929 12.5 10.5 12.5Z" fill="white"/>
<path d="M13.9375 2.1875H7.0625C5.90258 2.18881 4.79055 2.65017 3.97036 3.47036C3.15017 4.29055 2.68881 5.40258 2.6875 6.5625V13.4375C2.68881 14.5974 3.15017 15.7095 3.97036 16.5296C4.79055 17.3498 5.90258 17.8112 7.0625 17.8125H13.9375C15.0974 17.8112 16.2095 17.3498 17.0296 16.5296C17.8498 15.7095 18.3112 14.5974 18.3125 13.4375V6.5625C18.3112 5.40258 17.8498 4.29055 17.0296 3.47036C16.2095 2.65017 15.0974 2.18881 13.9375 2.1875ZM10.5 13.75C9.75832 13.75 9.0333 13.5301 8.41661 13.118C7.79993 12.706 7.31928 12.1203 7.03545 11.4351C6.75162 10.7498 6.67736 9.99584 6.82206 9.26841C6.96675 8.54098 7.3239 7.8728 7.84835 7.34835C8.3728 6.8239 9.04098 6.46675 9.76841 6.32206C10.4958 6.17736 11.2498 6.25162 11.9351 6.53545C12.6203 6.81928 13.206 7.29993 13.618 7.91661C14.0301 8.5333 14.25 9.25832 14.25 10C14.2489 10.9942 13.8534 11.9474 13.1504 12.6504C12.4474 13.3534 11.4942 13.7489 10.5 13.75ZM14.5625 6.875C14.3771 6.875 14.1958 6.82002 14.0417 6.717C13.8875 6.61399 13.7673 6.46757 13.6964 6.29627C13.6254 6.12496 13.6068 5.93646 13.643 5.7546C13.6792 5.57275 13.7685 5.4057 13.8996 5.27459C14.0307 5.14348 14.1977 5.05419 14.3796 5.01801C14.5615 4.98184 14.75 5.00041 14.9213 5.07136C15.0926 5.14232 15.239 5.26248 15.342 5.41665C15.445 5.57082 15.5 5.75208 15.5 5.9375C15.5 6.18614 15.4012 6.4246 15.2254 6.60041C15.0496 6.77623 14.8111 6.875 14.5625 6.875Z" fill="white"/>
</svg>
