<svg width="93" height="24" viewBox="0 0 93 24" fill="none" xmlns="http://www.w3.org/2000/svg">
<path d="M7.43728 8.47701L7.08892 8.28241C5.33778 7.30406 4.4622 6.81491 4.43707 5.99981C4.41195 5.18471 5.22725 4.66316 6.85783 3.6201C8.87901 2.32722 11.4115 0.883071 13.5481 0.208748C13.8697 0.0694199 14.2007 -0.000244141 14.5521 -0.000244141C16.5184 -0.000244141 17.8432 2.18101 20.4926 6.54351L21.0833 7.51621L21.6741 6.54351C24.3236 2.18101 25.6483 -0.000244141 27.6146 -0.000244141C29.581 -0.000244141 30.9057 2.18101 33.5551 6.54351L37.9642 13.8034C40.7132 18.3298 42.0878 20.5931 41.0942 22.2996C40.2542 23.7422 38.2004 23.9653 34.3325 23.9998L33.5551 22.7198C30.9057 18.3573 29.581 16.1761 27.6146 16.1761C25.6483 16.1761 24.3235 18.3573 21.6741 22.7198L21.0833 23.6925L20.4926 22.7198C17.8431 18.3573 16.5184 16.1761 14.5521 16.1761C12.5857 16.1761 11.261 18.3573 8.61153 22.7198L7.83418 23.9998C3.96626 23.9653 1.91243 23.7422 1.0725 22.2996C0.0789037 20.5931 1.45343 18.3299 4.20248 13.8033L7.43728 8.47701Z" fill="white"/>
<path d="M47.3119 23.9977C45.6892 23.9977 44.5562 23.5792 43.9129 22.7423C43.2697 21.9053 42.9512 20.4567 42.9575 18.3967C42.9575 18.3967 42.9575 14.4998 42.9575 14.2498C42.9575 13.5534 41.6708 13.9998 41.6708 13.4998C41.6708 12.9998 43.4006 11.9866 44.2566 11.7251C45.1294 11.4591 46.0381 11.3268 46.9512 11.3327C48.2101 11.3327 48.8395 11.6572 48.8395 12.3061L48.8263 17.767C48.8054 18.5605 48.8465 19.3544 48.9491 20.1416C49.0359 20.6367 49.2512 20.8889 49.6005 20.8889C50.0638 20.8889 50.2961 20.6965 50.2973 20.3116L50.3162 12.5714C50.3162 12.27 50.7663 11.9916 51.6661 11.7363C52.6218 11.4745 53.6095 11.3487 54.6007 11.3626C55.6581 11.3626 56.1862 11.6435 56.1852 12.2052L56.1547 23.2766C56.1547 23.4784 55.6987 23.6203 54.7858 23.7025C53.8733 23.7848 52.9751 23.8259 52.0911 23.8259C51.2075 23.8259 50.7581 23.7082 50.7448 23.4784L50.5315 22.079H50.3577C50.2386 22.5731 49.9635 23.0168 49.5722 23.3457C49.3018 23.5526 48.9952 23.7084 48.6677 23.8053C48.2295 23.9425 47.7714 24.0075 47.3119 23.9977Z" fill="white"/>
<path d="M64.3577 17.214L64.3424 23.4914C64.3424 23.6484 63.9307 23.7735 63.1133 23.8651C62.2689 23.958 61.4195 24.0029 60.5696 23.9996C59.6937 23.9996 59.1254 23.9566 58.8702 23.8763C58.6155 23.796 58.4793 23.6633 58.4813 23.4784L58.5078 12.8796C58.5078 12.6069 58.9104 12.3136 59.7161 11.9997C60.5553 11.6806 61.448 11.5228 62.3467 11.5345C63.2958 11.5345 63.8275 11.7936 63.9424 12.3117L64.1574 13.3019H64.3084C64.5127 12.7588 64.9992 12.298 65.7683 11.9194C66.482 11.5563 67.2715 11.3644 68.0741 11.3589C68.8407 11.3589 69.38 11.4834 69.6921 11.7325C69.8385 11.841 69.957 11.9821 70.0378 12.1445C70.1186 12.3068 70.1593 12.4857 70.1568 12.6667C70.1568 13.0403 70.1247 13.5298 70.0663 14.1183C69.9915 14.7687 69.8472 15.4094 69.6357 16.0296C69.4115 16.7171 69.1177 17.0608 68.7538 17.0608C68.2891 16.9876 67.8316 16.8782 67.3848 16.7339C66.7692 16.5413 66.1302 16.4314 65.4852 16.4069C64.9814 16.4069 64.6667 16.4779 64.5407 16.6199C64.4111 16.7905 64.3465 17.0009 64.3577 17.214Z" fill="white"/>
<path d="M75.2436 23.9977C73.9255 23.9977 72.891 23.6863 72.1392 23.0636C71.794 22.7452 71.5236 22.3555 71.3482 21.922C71.1149 21.3634 71.002 20.7626 71.0178 20.1584C71.0041 19.536 71.1754 18.9234 71.5104 18.3966C71.8088 17.9236 72.2159 17.5267 72.6984 17.2383C73.2108 16.9477 73.7592 16.7248 74.3296 16.575C75.3463 16.3259 76.3909 16.206 77.4381 16.2182H78.1538C78.1538 15.6316 77.952 15.2156 77.5494 14.9702C77.3023 14.854 77.0294 14.8013 76.7564 14.817C76.3157 14.8344 75.8821 14.928 75.4739 15.0935C75.0418 15.2457 74.6229 15.4331 74.2223 15.654C74.02 15.7951 73.7903 15.8936 73.5478 15.9436C73.2875 15.9436 72.9342 15.6017 72.4869 14.9198C72.039 14.2378 71.8164 13.612 71.8184 13.0515C71.8184 12.8647 72.0863 12.6218 72.6247 12.3229C73.3424 11.9562 74.1034 11.68 74.8908 11.5008C75.8236 11.2559 76.7843 11.1303 77.7497 11.1272C78.5559 11.1165 79.3606 11.1942 80.1495 11.3588C80.7209 11.4778 81.275 11.666 81.8001 11.9193C82.2225 12.1309 82.5941 12.429 82.8915 12.7937C83.1466 13.0943 83.3708 13.4191 83.562 13.7633C83.7343 14.1165 83.8471 14.4951 83.8959 14.8843C84.0052 15.5305 84.0545 16.1852 84.0433 16.8403L84.0245 23.3102C84.0245 23.469 83.6352 23.5923 82.861 23.6838C82.0964 23.7741 81.3273 23.8184 80.5572 23.8165C80.0641 23.8294 79.5705 23.8069 79.081 23.7492C78.9346 23.7394 78.7943 23.6867 78.6784 23.5979C78.622 23.5054 78.5854 23.4023 78.5711 23.2952L78.3993 22.0696H78.2255C77.8615 23.3587 76.8677 24.0014 75.2436 23.9977ZM78.1706 20.4349V17.9202C77.9906 17.9171 77.8127 17.9586 77.6531 18.0408C77.4935 18.123 77.3572 18.2434 77.2566 18.391C77.0248 18.7019 76.9018 19.079 76.9053 19.4653C76.9053 20.4106 77.1188 20.8851 77.5529 20.8851C77.7141 20.8959 77.8727 20.8465 77.9988 20.7469C78.0496 20.7112 78.0913 20.6646 78.1213 20.6105C78.1507 20.5565 78.1675 20.4964 78.1706 20.4349Z" fill="white"/>
<path d="M92.25 8.22023L92.2083 23.4859C92.2083 23.6428 91.795 23.768 90.9695 23.8595C90.1221 23.9522 89.2696 23.9971 88.4166 23.994C87.5388 23.994 86.974 23.9511 86.7173 23.8707C86.4606 23.7904 86.3396 23.6578 86.3396 23.4728L86.3813 8.59388C86.3813 8.27813 86.7925 7.96988 87.6125 7.67093C88.4593 7.36708 89.355 7.21643 90.2558 7.22628C91.5866 7.23378 92.251 7.56508 92.25 8.22023Z" fill="white"/>
</svg>
