<svg width="92" height="24" viewBox="0 0 92 24" fill="none" xmlns="http://www.w3.org/2000/svg">
<g clip-path="url(#clip0_22_403)">
<path d="M6.68728 8.47701L6.33892 8.28241C4.58778 7.30406 3.7122 6.81491 3.68707 5.99981C3.66195 5.18471 4.47725 4.66316 6.10783 3.6201C8.12901 2.32722 10.6615 0.883071 12.7981 0.208748C13.1197 0.0694199 13.4507 -0.000244141 13.8021 -0.000244141C15.7684 -0.000244141 17.0932 2.18101 19.7426 6.54351L20.3333 7.51621L20.9241 6.54351C23.5736 2.18101 24.8983 -0.000244141 26.8646 -0.000244141C28.831 -0.000244141 30.1557 2.18101 32.8051 6.54351L37.2142 13.8034C39.9632 18.3298 41.3378 20.5931 40.3442 22.2996C39.5042 23.7422 37.4504 23.9653 33.5825 23.9998L32.8051 22.7198C30.1557 18.3573 28.831 16.1761 26.8646 16.1761C24.8983 16.1761 23.5735 18.3573 20.9241 22.7198L20.3333 23.6925L19.7426 22.7198C17.0931 18.3573 15.7684 16.1761 13.8021 16.1761C11.8357 16.1761 10.511 18.3573 7.86153 22.7198L7.08418 23.9998C3.21626 23.9653 1.16243 23.7422 0.322504 22.2996C-0.671096 20.5931 0.703432 18.3299 3.45248 13.8033L6.68728 8.47701Z" fill="#0052FE"/>
<path d="M46.5619 23.9977C44.9392 23.9977 43.8062 23.5792 43.1629 22.7423C42.5197 21.9053 42.2012 20.4567 42.2075 18.3967C42.2075 18.3967 42.2075 14.4998 42.2075 14.2498C42.2075 13.5534 40.9208 13.9998 40.9208 13.4998C40.9208 12.9998 42.6506 11.9866 43.5066 11.7251C44.3794 11.4591 45.2881 11.3268 46.2012 11.3327C47.4601 11.3327 48.0895 11.6572 48.0895 12.3061L48.0763 17.767C48.0554 18.5605 48.0965 19.3544 48.1991 20.1416C48.2859 20.6367 48.5012 20.8889 48.8505 20.8889C49.3138 20.8889 49.5461 20.6965 49.5473 20.3116L49.5662 12.5714C49.5662 12.27 50.0163 11.9916 50.9161 11.7363C51.8718 11.4745 52.8595 11.3487 53.8507 11.3626C54.9081 11.3626 55.4362 11.6435 55.4352 12.2052L55.4047 23.2766C55.4047 23.4784 54.9487 23.6203 54.0358 23.7025C53.1233 23.7848 52.2251 23.8259 51.3411 23.8259C50.4575 23.8259 50.0081 23.7082 49.9948 23.4784L49.7815 22.079H49.6077C49.4886 22.5731 49.2135 23.0168 48.8222 23.3457C48.5518 23.5526 48.2452 23.7084 47.9177 23.8053C47.4795 23.9425 47.0214 24.0075 46.5619 23.9977Z" fill="#0052FE"/>
<path d="M63.6077 17.214L63.5924 23.4914C63.5924 23.6484 63.1807 23.7735 62.3633 23.8651C61.5189 23.958 60.6695 24.0029 59.8196 23.9996C58.9437 23.9996 58.3754 23.9566 58.1202 23.8763C57.8655 23.796 57.7293 23.6633 57.7313 23.4784L57.7578 12.8796C57.7578 12.6069 58.1604 12.3136 58.9661 11.9997C59.8053 11.6806 60.698 11.5228 61.5967 11.5345C62.5458 11.5345 63.0775 11.7936 63.1924 12.3117L63.4074 13.3019H63.5584C63.7627 12.7588 64.2492 12.298 65.0183 11.9194C65.732 11.5563 66.5215 11.3644 67.3241 11.3589C68.0907 11.3589 68.63 11.4834 68.9421 11.7325C69.0885 11.841 69.207 11.9821 69.2878 12.1445C69.3686 12.3068 69.4093 12.4857 69.4068 12.6667C69.4068 13.0403 69.3747 13.5298 69.3163 14.1183C69.2415 14.7687 69.0972 15.4094 68.8857 16.0296C68.6615 16.7171 68.3677 17.0608 68.0038 17.0608C67.5391 16.9876 67.0816 16.8782 66.6348 16.7339C66.0192 16.5413 65.3802 16.4314 64.7352 16.4069C64.2314 16.4069 63.9167 16.4779 63.7907 16.6199C63.6611 16.7905 63.5965 17.0009 63.6077 17.214Z" fill="#0052FE"/>
<path d="M74.4936 23.9977C73.1755 23.9977 72.141 23.6863 71.3892 23.0636C71.044 22.7452 70.7736 22.3555 70.5982 21.922C70.3649 21.3634 70.252 20.7626 70.2678 20.1584C70.2541 19.536 70.4254 18.9234 70.7604 18.3966C71.0588 17.9236 71.4659 17.5267 71.9484 17.2383C72.4608 16.9477 73.0092 16.7248 73.5796 16.575C74.5963 16.3259 75.6409 16.206 76.6881 16.2182H77.4038C77.4038 15.6316 77.202 15.2156 76.7994 14.9702C76.5523 14.854 76.2794 14.8013 76.0064 14.817C75.5657 14.8344 75.1321 14.928 74.7239 15.0935C74.2918 15.2457 73.8729 15.4331 73.4723 15.654C73.27 15.7951 73.0403 15.8936 72.7978 15.9436C72.5375 15.9436 72.1842 15.6017 71.7369 14.9198C71.289 14.2378 71.0664 13.612 71.0684 13.0515C71.0684 12.8647 71.3363 12.6218 71.8747 12.3229C72.5924 11.9562 73.3534 11.68 74.1408 11.5008C75.0736 11.2559 76.0343 11.1303 76.9997 11.1272C77.8059 11.1165 78.6106 11.1942 79.3995 11.3588C79.9709 11.4778 80.525 11.666 81.0501 11.9193C81.4725 12.1309 81.8441 12.429 82.1415 12.7937C82.3966 13.0943 82.6208 13.4191 82.812 13.7633C82.9843 14.1165 83.0971 14.4951 83.1459 14.8843C83.2552 15.5305 83.3045 16.1852 83.2933 16.8403L83.2745 23.3102C83.2745 23.469 82.8852 23.5923 82.111 23.6838C81.3464 23.7741 80.5773 23.8184 79.8072 23.8165C79.3141 23.8294 78.8205 23.8069 78.331 23.7492C78.1846 23.7394 78.0443 23.6867 77.9284 23.5979C77.872 23.5054 77.8354 23.4023 77.8211 23.2952L77.6493 22.0696H77.4755C77.1115 23.3587 76.1177 24.0014 74.4936 23.9977ZM77.4206 20.4349V17.9202C77.2406 17.9171 77.0627 17.9586 76.9031 18.0408C76.7435 18.123 76.6072 18.2434 76.5066 18.391C76.2748 18.7019 76.1518 19.079 76.1553 19.4653C76.1553 20.4106 76.3688 20.8851 76.8029 20.8851C76.9641 20.8959 77.1227 20.8465 77.2488 20.7469C77.2996 20.7112 77.3413 20.6646 77.3713 20.6105C77.4007 20.5565 77.4175 20.4964 77.4206 20.4349Z" fill="#0052FE"/>
<path d="M91.5 8.22023L91.4583 23.4859C91.4583 23.6428 91.045 23.768 90.2195 23.8595C89.3721 23.9522 88.5196 23.9971 87.6666 23.994C86.7888 23.994 86.224 23.9511 85.9673 23.8707C85.7106 23.7904 85.5896 23.6578 85.5896 23.4728L85.6313 8.59388C85.6313 8.27813 86.0425 7.96988 86.8625 7.67093C87.7093 7.36708 88.605 7.21643 89.5058 7.22628C90.8366 7.23378 91.501 7.56508 91.5 8.22023Z" fill="#0052FE"/>
</g>
<defs>
<clipPath id="clip0_22_403">
<rect width="91.5" height="24" fill="white"/>
</clipPath>
</defs>
</svg>
