<svg width="123" height="123" viewBox="0 0 123 123" fill="none" xmlns="http://www.w3.org/2000/svg">
<path d="M20.3457 19.8869C23.7128 9.08588 25.3963 3.68535 29.7977 1.37589C34.1992 -0.933571 39.5997 0.749942 50.4008 4.11697L102.46 20.3456C113.262 23.7126 118.662 25.3961 120.972 29.7976C123.281 34.199 121.597 39.5995 118.23 50.4006L102.002 102.46C98.6348 113.261 96.9513 118.662 92.5498 120.971C88.1484 123.281 82.7479 121.597 71.9468 118.23L19.8871 102.002C9.08606 98.6347 3.68552 96.9511 1.37606 92.5497C-0.933401 88.1482 0.750112 82.7477 4.11714 71.9466L20.3457 19.8869Z" fill="#FDE3EF"/>
</svg>
