<svg width="133" height="134" viewBox="0 0 133 134" fill="none" xmlns="http://www.w3.org/2000/svg">
<path d="M61.1577 5.52594C68.796 2.0027 72.6151 0.241087 76.4394 1.00095C80.2637 1.76082 83.1192 4.84868 88.8304 11.0244L123.019 47.9939C128.73 54.1696 131.586 57.2575 132.045 61.1294C132.504 65.0013 130.45 68.6714 126.341 76.0114L101.746 119.951C97.6371 127.291 95.5828 130.961 92.0423 132.594C88.5017 134.227 84.3765 133.407 76.1261 131.768L26.7368 121.955C18.4864 120.315 14.3612 119.496 11.7139 116.633C9.06664 113.771 8.57143 109.594 7.581 101.241L1.65201 51.2362C0.661573 42.883 0.166358 38.7064 2.0708 35.3041C3.97524 31.9018 7.79439 30.1402 15.4327 26.617L61.1577 5.52594Z" fill="#FDE3EF"/>
</svg>
