<svg width="48" height="48" viewBox="0 0 48 48" fill="none" xmlns="http://www.w3.org/2000/svg">
<path d="M32.9993 21.75C32.9993 23.975 32.3395 26.1501 31.1033 28.0001C29.8672 29.8502 28.1101 31.2921 26.0545 32.1436C23.9988 32.9951 21.7368 33.2179 19.5545 32.7838C17.3722 32.3497 15.3677 31.2783 13.7943 29.7049C12.221 28.1316 11.1495 26.127 10.7154 23.9447C10.2814 21.7624 10.5042 19.5004 11.3556 17.4448C12.2071 15.3891 13.6491 13.6321 15.4991 12.3959C17.3492 11.1598 19.5242 10.5 21.7493 10.5C24.7319 10.5034 27.5915 11.6897 29.7005 13.7988C31.8096 15.9078 32.9959 18.7673 32.9993 21.75V21.75ZM43.0589 43.0608C42.7776 43.3421 42.396 43.5002 41.9982 43.5002C41.6003 43.5002 41.2188 43.3421 40.9375 43.0608L32.8332 34.9565C29.4245 37.8183 25.0426 39.2537 20.6013 38.9634C16.1601 38.6732 12.0023 36.6796 8.99504 33.3985C5.98781 30.1174 4.36327 25.8021 4.46022 21.3524C4.55716 16.9027 6.3681 12.6622 9.51538 9.51524C12.6627 6.36823 16.9033 4.55766 21.353 4.4611C25.8027 4.36454 30.1179 5.98945 33.3987 8.99697C36.6796 12.0045 38.6728 16.1624 38.9626 20.6037C39.2525 25.045 37.8167 29.4268 34.9546 32.8352L43.0589 40.9395C43.3402 41.2208 43.4982 41.6023 43.4982 42.0002C43.4982 42.398 43.3402 42.7795 43.0589 43.0608V43.0608ZM21.7493 36C24.5677 36 27.3228 35.1642 29.6662 33.5984C32.0096 32.0326 33.836 29.8071 34.9146 27.2032C35.9931 24.5994 36.2753 21.7342 35.7255 18.9699C35.1756 16.2057 33.8185 13.6666 31.8256 11.6737C29.8327 9.6808 27.2936 8.32362 24.5293 7.77378C21.7651 7.22394 18.8999 7.50614 16.296 8.58469C13.6922 9.66324 11.4666 11.4897 9.90084 13.8331C8.33503 16.1765 7.49928 18.9316 7.49928 21.75C7.50356 25.528 9.00626 29.1501 11.6777 31.8215C14.3492 34.493 17.9713 35.9957 21.7493 36Z" fill="#0052FE"/>
</svg>
