<svg width="49" height="48" viewBox="0 0 49 48" fill="none" xmlns="http://www.w3.org/2000/svg">
<path d="M33.6667 30C32.6661 29.9996 31.6756 30.2002 30.7539 30.5896C29.8322 30.9791 28.9981 31.5496 28.3009 32.2674L19.6576 26.711C20.3364 24.9674 20.3364 23.0326 19.6576 21.289L28.3009 15.7326C29.5984 17.0599 31.3425 17.8581 33.195 17.9727C35.0476 18.0872 36.8767 17.5099 38.3278 16.3525C39.7789 15.1952 40.7487 13.5403 41.0491 11.7087C41.3495 9.87706 40.9591 7.99913 39.9537 6.43892C38.9483 4.87871 37.3994 3.74735 35.6073 3.26415C33.8152 2.78095 31.9075 2.98032 30.254 3.82361C28.6006 4.66691 27.3191 6.09407 26.658 7.82845C25.9969 9.56282 26.0032 11.4809 26.6759 13.2108L18.0325 18.7673C16.9916 17.6986 15.6557 16.9645 14.1956 16.659C12.7354 16.3535 11.2172 16.4903 9.83525 17.0521C8.45325 17.6138 7.27018 18.575 6.43727 19.8126C5.60437 21.0503 5.15948 22.5082 5.15948 24C5.15948 25.4918 5.60437 26.9497 6.43727 28.1874C7.27018 29.425 8.45325 30.3862 9.83525 30.9479C11.2172 31.5097 12.7354 31.6466 14.1956 31.341C15.6557 31.0355 16.9916 30.3014 18.0325 29.2327L26.6759 34.7892C26.0972 36.2824 26.0118 37.9217 26.4321 39.467C26.8524 41.0122 27.7564 42.3824 29.0117 43.3768C30.267 44.3712 31.8077 44.9375 33.4082 44.993C35.0086 45.0485 36.5848 44.5902 37.906 43.6851C39.2271 42.78 40.2238 41.4758 40.7502 39.9633C41.2765 38.4509 41.3048 36.8096 40.8309 35.2799C40.3571 33.7502 39.4059 32.4123 38.1168 31.4622C36.8276 30.5122 35.2682 29.9997 33.6667 30V30Z" fill="#0052FE"/>
</svg>
