<svg width="49" height="48" viewBox="0 0 49 48" fill="none" xmlns="http://www.w3.org/2000/svg">
<path d="M45.5104 18.2646C45.3231 17.6766 44.9629 17.1588 44.4769 16.7785C43.9909 16.3983 43.4015 16.1735 42.7858 16.1332L31.65 15.3539L27.5192 4.95209C27.2956 4.37702 26.9036 3.8829 26.3944 3.53447C25.8852 3.18604 25.2826 2.99956 24.6657 2.99945H24.6627C24.0467 3.00055 23.4453 3.18751 22.9373 3.53589C22.4292 3.88427 22.0381 4.37785 21.8151 4.95209L17.6227 15.414L6.54846 16.1332C5.9327 16.1735 5.34336 16.3983 4.85732 16.7785C4.37129 17.1588 4.01114 17.6766 3.82385 18.2646C3.62628 18.8609 3.61284 19.5029 3.78528 20.107C3.95772 20.711 4.30805 21.2492 4.79065 21.6513L13.3102 28.8525L10.776 38.8208C10.6013 39.4922 10.6335 40.2008 10.8682 40.8536C11.1029 41.5065 11.5292 42.0734 12.0914 42.4799C12.6342 42.8748 13.2833 43.0972 13.9542 43.1181C14.6252 43.139 15.2868 42.9575 15.8531 42.5971L24.6422 37.0292C24.6539 37.0205 24.6656 37.0146 24.692 37.0292L34.149 43.0205C34.6625 43.3485 35.2629 43.5139 35.8719 43.4951C36.4808 43.4763 37.07 43.2741 37.5621 42.915C38.0715 42.5467 38.4579 42.0333 38.6707 41.4418C38.8834 40.8503 38.9126 40.2084 38.7545 39.6L36.0621 28.7104L44.5436 21.6513C45.0262 21.2492 45.3765 20.711 45.5489 20.107C45.7214 19.5029 45.7079 18.8609 45.5104 18.2646Z" fill="#0052FE"/>
</svg>
