<svg width="21" height="20" viewBox="0 0 21 20" fill="none" xmlns="http://www.w3.org/2000/svg">
<path d="M18.5669 2.47922C18.3947 2.33051 18.185 2.23176 17.9607 2.19364C17.7364 2.15553 17.5059 2.17952 17.2942 2.26301L2.87569 7.92745C2.62438 8.02618 2.41178 8.20364 2.26973 8.43327C2.12768 8.6629 2.0638 8.93236 2.08765 9.20132C2.11151 9.47028 2.22182 9.72428 2.40207 9.92533C2.58232 10.1264 2.82283 10.2636 3.0876 10.3166L6.75002 11.0491V15.6236C6.7498 15.8709 6.82299 16.1127 6.96031 16.3184C7.09762 16.5241 7.29289 16.6845 7.52138 16.7791C7.74988 16.8737 8.00132 16.8985 8.24386 16.8501C8.48641 16.8017 8.70915 16.6825 8.88388 16.5075L10.9107 14.4807L13.987 17.1878C14.2134 17.3889 14.5057 17.5001 14.8086 17.5005C14.9403 17.5004 15.0711 17.4796 15.1964 17.439C15.403 17.3735 15.5888 17.2549 15.7352 17.0952C15.8817 16.9354 15.9837 16.7401 16.0311 16.5286L18.9697 3.70573C19.0208 3.48399 19.0104 3.25249 18.9394 3.03629C18.8684 2.82009 18.7395 2.62745 18.5669 2.47922ZM14.8127 16.2494L8.3758 10.5848L17.6449 3.89055L14.8127 16.2494Z" fill="white"/>
</svg>
