<svg width="18" height="16" viewBox="0 0 18 16" fill="none" xmlns="http://www.w3.org/2000/svg">
<path d="M17.0669 0.479224C16.8947 0.330514 16.685 0.231756 16.4607 0.193644C16.2364 0.155532 16.0059 0.179519 15.7942 0.263007L1.37569 5.92745C1.12438 6.02618 0.911784 6.20364 0.76973 6.43327C0.627676 6.6629 0.563797 6.93236 0.587653 7.20132C0.611509 7.47028 0.721815 7.72428 0.902068 7.92533C1.08232 8.12637 1.32283 8.26364 1.5876 8.3166L5.25002 9.04909V13.6236C5.2498 13.8709 5.32299 14.1127 5.46031 14.3184C5.59762 14.5241 5.79289 14.6845 6.02138 14.7791C6.24988 14.8737 6.50132 14.8985 6.74386 14.8501C6.98641 14.8017 7.20915 14.6825 7.38388 14.5075L9.41071 12.4807L12.487 15.1878C12.7134 15.3889 13.0057 15.5001 13.3086 15.5005C13.4403 15.5004 13.5711 15.4796 13.6964 15.439C13.903 15.3735 14.0888 15.2549 14.2352 15.0952C14.3817 14.9354 14.4837 14.7401 14.5311 14.5286L17.4697 1.70573C17.5208 1.48399 17.5104 1.25249 17.4394 1.03629C17.3684 0.820094 17.2395 0.627447 17.0669 0.479224V0.479224ZM13.3127 14.2494L6.8758 8.58484L16.1449 1.89055L13.3127 14.2494Z" fill="#0052FE"/>
</svg>
