<svg width="48" height="48" viewBox="0 0 48 48" fill="none" xmlns="http://www.w3.org/2000/svg">
<path d="M14.25 22.5C18.8063 22.5 22.5 18.8063 22.5 14.25C22.5 9.69365 18.8063 6 14.25 6C9.69365 6 6 9.69365 6 14.25C6 18.8063 9.69365 22.5 14.25 22.5Z" fill="#0052FE"/>
<path d="M33.75 22.5C38.3063 22.5 42 18.8063 42 14.25C42 9.69365 38.3063 6 33.75 6C29.1937 6 25.5 9.69365 25.5 14.25C25.5 18.8063 29.1937 22.5 33.75 22.5Z" fill="#0052FE"/>
<path d="M14.25 42C18.8063 42 22.5 38.3063 22.5 33.75C22.5 29.1937 18.8063 25.5 14.25 25.5C9.69365 25.5 6 29.1937 6 33.75C6 38.3063 9.69365 42 14.25 42Z" fill="#0052FE"/>
<path d="M39 32.25H35.25V28.5C35.25 28.1022 35.092 27.7206 34.8107 27.4393C34.5294 27.158 34.1478 27 33.75 27C33.3522 27 32.9706 27.158 32.6893 27.4393C32.408 27.7206 32.25 28.1022 32.25 28.5V32.25H28.5C28.1022 32.25 27.7206 32.408 27.4393 32.6893C27.158 32.9706 27 33.3522 27 33.75C27 34.1478 27.158 34.5294 27.4393 34.8107C27.7206 35.092 28.1022 35.25 28.5 35.25H32.25V39C32.25 39.3978 32.408 39.7794 32.6893 40.0607C32.9706 40.342 33.3522 40.5 33.75 40.5C34.1478 40.5 34.5294 40.342 34.8107 40.0607C35.092 39.7794 35.25 39.3978 35.25 39V35.25H39C39.3978 35.25 39.7794 35.092 40.0607 34.8107C40.342 34.5294 40.5 34.1478 40.5 33.75C40.5 33.3522 40.342 32.9706 40.0607 32.6893C39.7794 32.408 39.3978 32.25 39 32.25Z" fill="#0052FE"/>
</svg>
